<svg height="600" viewBox="0 0 392 600" width="392" xmlns="http://www.w3.org/2000/svg"><g fill="none" fill-rule="evenodd"><g fill="#000"><path d="m196 600c-33.086023 0-60-26.916104-60-60h21.818182c0 21.053038 17.131284 38.183221 38.181818 38.183221 21.054391 0 38.181818-17.130183 38.181818-38.183221h21.818182c0 33.083896-26.913977 60-60 60"/><path d="m98 245.998075c0 27.063293-21.938632 49.001925-48.9980749 49.001925-27.0632931 0-49.0019251-21.938632-49.0019251-49.001925s21.938632-48.998075 49.0019251-48.998075c27.0594429 0 48.9980749 21.934782 48.9980749 48.998075"/><path d="m392 245.998075c0 27.063293-21.938632 49.001925-48.998075 49.001925-27.063293 0-49.001925-21.938632-49.001925-49.001925s21.938632-48.998075 49.001925-48.998075c27.059443 0 48.998075 21.934782 48.998075 48.998075"/></g><path d="m0 95h392v-95h-392z" fill="#00a170"/></g></svg>