
<svg width="164px" height="129px" viewBox="0 0 164 129" version="1.1" xmlns="http://www.w3.org/2000/svg" xmlns:xlink="http://www.w3.org/1999/xlink">
    <g id="Interaksjonsdesign-2.0-(current)" stroke="none" stroke-width="1" fill="none" fill-rule="evenodd">
        <g id="Kom-i-gang" transform="translate(-1122.000000, -945.000000)">
            <rect  x="0" y="0" width="1920" height="1205"></rect>
            <g id="card-pattern" opacity="0.264834449" stroke="#000000">
                <g transform="translate(1204.000000, 1009.500000) scale(-1, 1) translate(-1204.000000, -1009.500000) translate(1122.000000, 946.000000)">
                    <g transform="translate(0.000000, 0.000000)" id="Path">
                        <path d="M155.232316,12 L163.175995,19.94288" stroke-width="1.25"></path>
                        <path d="M12.3310387,118.75719 L20.2747183,126.70007" stroke-width="1.25"></path>
                        <path d="M0.415644251,118.75719 L8.35907401,126.70007" stroke-width="1.25"></path>
                        <path d="M48.0774718,118.75719 L56.0211514,126.70007" stroke-width="1.25"></path>
                        <path d="M36.1620774,118.75719 L44.1057569,126.70007" stroke-width="1.25"></path>
                        <path d="M24.2464331,118.75719 L32.1901127,126.70007" stroke-width="1.25"></path>
                        <path d="M83.823905,118.75719 L91.7675845,126.70007" stroke-width="1.25"></path>
                        <path d="M71.9085105,118.75719 L79.8521901,126.70007" stroke-width="1.25"></path>
                        <path d="M59.9928663,118.75719 L67.9365458,126.70007" stroke-width="1.25"></path>
                        <path d="M119.570338,118.75719 L127.514018,126.70007" stroke-width="1.25"></path>
                        <path d="M107.654944,118.75719 L115.598623,126.70007" stroke-width="1.25"></path>
                        <path d="M95.7392994,118.75719 L103.682979,126.70007" stroke-width="1.25"></path>
                        <path d="M155.316771,118.75719 L163.260451,126.70007" stroke-width="1.25"></path>
                        <path d="M143.401377,118.75719 L151.345056,126.70007" stroke-width="1.25"></path>
                        <path d="M131.485982,118.75719 L139.429412,126.70007" stroke-width="1.25"></path>
                        <path d="M155.232415,0.085580116 L163.176095,8.0284601" stroke-width="1.25"></path>
                        <path d="M155.232316,35.8286399 L163.175995,43.7715199" stroke-width="1.25"></path>
                        <path d="M155.232316,23.9141951 L163.175995,31.8570751" stroke-width="1.25"></path>
                        <path d="M155.316771,106.842745 L163.260451,114.785625" stroke-width="1.25"></path>
                        <path d="M155.316771,94.92855 L163.260451,102.87143" stroke-width="1.25"></path>
                        <path d="M155.316771,83.0143549 L163.260451,90.9572349" stroke-width="1.25"></path>
                        <path d="M155.316771,71.0999101 L163.260451,79.0427901" stroke-width="1.25"></path>
                        <path d="M155.316771,59.185715 L163.260451,67.128595" stroke-width="1.25"></path>
                        <path d="M155.316771,47.2715199 L163.260451,55.2141501" stroke-width="1.25"></path>
                    </g>
                </g>
            </g>
        </g>
    </g>
</svg>
