<svg height="129" viewBox="0 0 164 129" width="164" xmlns="http://www.w3.org/2000/svg"><g fill="none" fill-rule="evenodd"><path d="m-1450-195h1920v1205h-1920z"/><g opacity=".264834" stroke="#000" stroke-width="1.25" transform="matrix(1 0 0 -1 0 128)"><path d="m155.232316 12 7.943679 7.94288"/><path d="m12.3310387 118.75719 7.9436796 7.94288"/><path d="m.41564425 118.75719 7.94342976 7.94288"/><path d="m48.0774718 118.75719 7.9436796 7.94288"/><path d="m36.1620774 118.75719 7.9436795 7.94288"/><path d="m24.2464331 118.75719 7.9436796 7.94288"/><path d="m83.823905 118.75719 7.9436795 7.94288"/><path d="m71.9085105 118.75719 7.9436796 7.94288"/><path d="m59.9928663 118.75719 7.9436795 7.94288"/><path d="m119.570338 118.75719 7.94368 7.94288"/><path d="m107.654944 118.75719 7.943679 7.94288"/><path d="m95.7392994 118.75719 7.9436796 7.94288"/><path d="m155.316771 118.75719 7.94368 7.94288"/><path d="m143.401377 118.75719 7.943679 7.94288"/><path d="m131.485982 118.75719 7.94343 7.94288"/><path d="m155.232415.08558012 7.94368 7.94287998"/><path d="m155.232316 35.8286399 7.943679 7.94288"/><path d="m155.232316 23.9141951 7.943679 7.94288"/><path d="m155.316771 106.842745 7.94368 7.94288"/><path d="m155.316771 94.92855 7.94368 7.94288"/><path d="m155.316771 83.0143549 7.94368 7.94288"/><path d="m155.316771 71.0999101 7.94368 7.94288"/><path d="m155.316771 59.185715 7.94368 7.94288"/><path d="m155.316771 47.2715199 7.94368 7.9426302"/></g></g></svg>