<svg height="24" viewBox="0 0 12 24" width="12" xmlns="http://www.w3.org/2000/svg"><path d="m11.7 17.838c-.1548963-.3735907-.5195709-.6171018-.924-.617h-3.026c-.06638566.0002671-.13012947-.0259863-.1770716-.0729284s-.07319555-.1106859-.0729284-.1770716v-15.471c0-.82842712-.67157288-1.5-1.5-1.5s-1.5.67157288-1.5 1.5v15.471c0 .1380712-.11192881.25-.25.25h-3.028c-.4043959.0000863-.76893405.2437275-.92367798.6173454-.15474393.373618-.06922994.8036603.21667798 1.0896546l4.777 4.778c.18756826.187777.44209075.2932867.7075.2932867s.51993174-.1055097.7075-.2932867l4.778-4.778c.2854728-.2864366.3703249-.7166171.215-1.09z" fill="#5d103f" fill-rule="evenodd"/></svg>