<svg width="12px" height="24px" viewBox="0 0 12 24" version="1.1" xmlns="http://www.w3.org/2000/svg" xmlns:xlink="http://www.w3.org/1999/xlink">
    <g id="Komponenter" stroke="none" stroke-width="1" fill="none" fill-rule="evenodd">
        <g id="Elementer" transform="translate(-687.000000, -3539.000000)" fill="#5D103F">
            <g id="**Turn-on/off-descriptions**" transform="translate(168.000000, 237.000000)">
                <g id="desc" transform="translate(490.000000, 3275.000000)">
                    <g id="keyboard-arrow-down" transform="translate(29.000000, 27.000000)">
                        <path d="M11.7,17.838 C11.5451037,17.4644093 11.1804291,17.2208982 10.776,17.221 L7.75,17.221 C7.68361434,17.2212671 7.61987053,17.1950137 7.5729284,17.1480716 C7.52598627,17.1011295 7.49973285,17.0373857 7.5,16.971 L7.5,1.5 C7.5,0.671572875 6.82842712,0 6,0 C5.17157288,0 4.5,0.671572875 4.5,1.5 L4.5,16.971 C4.5,17.1090712 4.38807119,17.221 4.25,17.221 L1.222,17.221 C0.817604102,17.2210863 0.45306595,17.4647275 0.298322022,17.8383454 C0.143578094,18.2119634 0.229092084,18.6420057 0.515,18.928 L5.292,23.706 C5.47956826,23.893777 5.73409075,23.9992867 5.9995,23.9992867 C6.26490925,23.9992867 6.51943174,23.893777 6.707,23.706 L11.485,18.928 C11.7704728,18.6415634 11.8553249,18.2113829 11.7,17.838 Z" id="Path"></path>
                    </g>
                </g>
            </g>
        </g>
    </g>
</svg>
