<svg height="25" viewBox="0 0 140 25" width="140" xmlns="http://www.w3.org/2000/svg"><g fill="#0a0d0d" fill-rule="evenodd" transform="translate(0 .416667)"><path d="m0 19.3936 2.722-1.021c.612 2.211 2.382 3.403 4.729 3.403 2.11 0 3.641-.817 3.641-2.45s-1.259-2.11-4.423-2.722c-2.858-.545-5.546-1.6-5.546-4.968 0-3.062 2.688-4.968 5.852-4.968 3.096 0 5.069 1.293 6.363 3.812l-2.348 1.497c-1.055-1.905-2.28-2.722-4.117-2.722-1.463 0-2.96.613-2.96 2.28 0 1.463 1.429 2.143 3.981 2.653 3.198.646 6.158 1.565 6.158 4.899 0 3.301-3.062 5.275-6.601 5.275-3.436 0-6.396-1.701-7.451-4.968"/><path d="m17.9547 15.5147c0-4.831 3.062-8.847 8.2-8.847 5.308 0 8.132 3.778 8.132 8.269v1.19h-13.406c.17 3.403 2.246 5.649 5.274 5.649 2.586 0 4.355-1.259 5.512-3.403l2.28 1.191c-1.872 3.607-4.594 4.798-7.792 4.798-5.002 0-8.2-3.845-8.2-8.847zm13.303-1.974c-.51-2.721-2.313-4.286-5.103-4.286-2.756 0-4.491 1.701-5.07 4.286z"/><path d="m39.3801 0h2.858v14.119l7.315-7.179h3.743l-7.996 7.861 8.778 9.288h-3.742l-8.098-8.609v8.609h-2.858z"/><path d="m55.8594 6.9404h3.096l5.512 13.746 5.512-13.746h3.096l-7.179 17.148h-2.858z"/><path d="m75.571 15.5147c0-4.831 3.062-8.847 8.2-8.847 5.308 0 8.132 3.778 8.132 8.269v1.19h-13.406c.17 3.403 2.246 5.649 5.274 5.649 2.586 0 4.355-1.259 5.512-3.403l2.28 1.191c-1.872 3.607-4.594 4.798-7.792 4.798-5.002 0-8.2-3.845-8.2-8.847zm13.303-1.974c-.51-2.721-2.313-4.286-5.103-4.286-2.756 0-4.491 1.701-5.07 4.286z"/><path d="m96.8301 6.9404h2.858v3.165c1.225-1.974 3.369-3.437 5.818-3.437 3.573 0 5.24 2.177 5.24 5.478v11.942h-2.858v-11.33c0-2.381-1.123-3.504-3.164-3.504-2.688 0-5.036 2.925-5.036 7.927v6.907h-2.858z"/><path d="m115.4235 19.3936 2.722-1.021c.612 2.211 2.382 3.403 4.729 3.403 2.11 0 3.641-.817 3.641-2.45s-1.259-2.11-4.423-2.722c-2.858-.545-5.546-1.6-5.546-4.968 0-3.062 2.688-4.968 5.852-4.968 3.096 0 5.069 1.293 6.363 3.812l-2.348 1.497c-1.055-1.905-2.28-2.722-4.117-2.722-1.463 0-2.96.613-2.96 2.28 0 1.463 1.429 2.143 3.981 2.653 3.198.646 6.158 1.565 6.158 4.899 0 3.301-3.062 5.275-6.601 5.275-3.436 0-6.396-1.701-7.451-4.968"/><path d="m135.7854 22.084c0-1.224.884-2.107 2.108-2.107 1.223 0 2.107.883 2.107 2.107s-.884 2.106-2.107 2.106c-1.224 0-2.108-.882-2.108-2.106"/></g></svg>