<svg height="256" viewBox="0 0 328 256" width="328" xmlns="http://www.w3.org/2000/svg"><g fill="none" fill-rule="evenodd"><path d="m-821-2283h1920v3689h-1920z"/><g opacity=".264834" stroke="#000" stroke-width="2.5" transform="translate(0 1)"><path d="m310.464631 24 15.887359 15.88576"/><path d="m24.6620774 237.51438 15.8873591 15.88576"/><path d="m.8312885 237.51438 15.8868595 15.88576"/><path d="m96.1549437 237.51438 15.8873593 15.88576"/><path d="m72.3241548 237.51438 15.8873591 15.88576"/><path d="m48.4928663 237.51438 15.8873591 15.88576"/><path d="m167.64781 237.51438 15.887359 15.88576"/><path d="m143.817021 237.51438 15.887359 15.88576"/><path d="m119.985733 237.51438 15.887359 15.88576"/><path d="m239.140676 237.51438 15.887359 15.88576"/><path d="m215.309887 237.51438 15.887359 15.88576"/><path d="m191.478599 237.51438 15.887359 15.88576"/><path d="m310.633542 237.51438 15.88736 15.88576"/><path d="m286.802754 237.51438 15.887359 15.88576"/><path d="m262.971965 237.51438 15.886859 15.88576"/><path d="m310.464831.17116023 15.887359 15.88575997"/><path d="m310.464631 71.6572799 15.887359 15.8857599"/><path d="m310.464631 47.8283902 15.887359 15.8857599"/><path d="m310.633542 213.68549 15.88736 15.88576"/><path d="m310.633542 189.8571 15.88736 15.88576"/><path d="m310.633542 166.02871 15.88736 15.88576"/><path d="m310.633542 142.19982 15.88736 15.88576"/><path d="m310.633542 118.37143 15.88736 15.88576"/><path d="m310.633542 94.5430398 15.88736 15.8852602"/></g></g></svg>