<svg enable-background="new 0 0 180.9 34" preserveAspectRatio="xMinyMin meet" viewBox="0 0 180.9 34" xmlns="http://www.w3.org/2000/svg"><g fill="#004b93"><circle cx="17" cy="4.2" r="4.2"/><path d="m21.2 17c0 2.3-1.9 4.2-4.2 4.2s-4.2-1.9-4.2-4.2 1.9-4.2 4.2-4.2 4.2 1.9 4.2 4.2z"/><path d="m8.4 17c0 2.3-1.9 4.2-4.2 4.2s-4.2-1.9-4.2-4.2 1.9-4.2 4.2-4.2 4.2 1.9 4.2 4.2z"/><path d="m34 17c0 2.3-1.9 4.2-4.2 4.2s-4.2-1.9-4.2-4.2 1.9-4.2 4.2-4.2 4.2 1.9 4.2 4.2z"/><circle cx="17" cy="29.8" r="4.2"/><path d="m49 16.4c-.5 0-.9 0-2-.2v5h-1.6v-13.2h4.1c1.6 0 2.5.3 3.2 1s1 1.6 1 2.9c0 2.8-1.8 4.5-4.7 4.5zm2.3-6.5c-.4-.4-1-.6-2-.6h-2.3v5.4c.9.1 1.3.1 1.8.1.7 0 1.3-.1 1.7-.3 1-.4 1.6-1.4 1.6-2.7-.1-.7-.3-1.4-.8-1.9z"/><path d="m64.3 21.2-1.4-3.9h-5.3l-1.4 3.9h-1.8l4.9-13.6h1.8l4.9 13.6zm-4-11.4-2.2 6h4.3z"/><path d="m75 10.2c-.7-.4-1-.5-1.4-.7-.5-.2-1.3-.3-1.8-.3-1.5 0-2.5.7-2.5 1.9 0 1 .6 1.5 3.3 2.9.9.5 1.6.9 2.1 1.3.6.5 1 1.4 1 2.4 0 2.3-1.7 3.7-4.3 3.7-.9 0-1.7-.2-2.4-.4-.5-.2-.8-.4-1.7-1l.8-1.3c.7.5 1.1.7 1.5.9.6.2 1.2.3 1.9.3 1.6 0 2.5-.7 2.5-2 0-.4-.1-.7-.2-.9-.2-.4-.6-.8-1.1-1.1-.2-.1-1-.5-2.2-1.2-2-1.1-2.8-2.1-2.8-3.5 0-2.1 1.7-3.5 4.4-3.5.8 0 1.5.1 2.2.3.5.2.9.3 1.6.8z"/><path d="m79.1 21.2v-13.2h1.6v13.2z"/><path d="m85.1 21.2v-13.2h7.4v1.4h-5.8v4.4h4.8v1.4h-4.8v4.7h6v1.4h-7.6z"/><path d="m104.8 21.3-6.7-10.3c-.1-.1-.2-.3-.3-.5-.1-.1-.1-.2-.2-.3s-.1-.2-.2-.5v11.4h-1.6v-13.1h2.2l6.5 10.1c.1.1.1.2.2.3.1.2.1.2.2.6 0 0 0 .1.1.2v-11.2h1.6v13.3z"/><path d="m115 9.4v11.8h-1.6v-11.8h-4.4v-1.4h10.4v1.4z"/><path d="m128.2 21.2-3-5.3h-1.3v5.3h-2.5v-13.2h4.4c1.9 0 2.8.2 3.6 1 .7.7 1.1 1.6 1.1 2.9 0 1-.2 1.8-.7 2.5-.5.6-1 .9-2.1 1.2l3.3 5.7h-2.8zm-2.6-11.1h-1.6v3.6h1.6c1.6 0 2.3-.6 2.3-1.9 0-1.2-.7-1.7-2.3-1.7z"/><path d="m133.1 21.2v-13.2h8v2.1h-5.5v3.3h4.5v2.1h-4.5v3.5h5.8v2.1h-8.3z"/><path d="m143.8 21.2v-13.2h2.5v13.2z"/><path d="m157.2 11.1c-1.4-.6-2.5-.9-3.4-.9-1.2 0-1.9.5-1.9 1.2 0 .6.3.9 1.3 1.4 2 1.1 3.3 1.9 4 2.5.6.6.9 1.4.9 2.4 0 2.4-1.7 3.7-4.6 3.7-.4 0-.8 0-1.2-.1-.9-.1-1.4-.3-2.8-.9-.2-.1-.5-.2-.9-.4l1.1-2.3c1 .5 1.4.7 1.9.9.7.2 1.4.4 1.9.4 1.2 0 1.9-.5 1.9-1.3 0-.6-.3-.9-1.2-1.4l-2-1.2c-2.3-1.3-3.1-2.2-3.1-3.7 0-.7.2-1.3.5-1.8.2-.3.6-.7 1-1 1-.7 1.8-.9 3.3-.9.9 0 1.7.1 2.5.3.6.2 1 .3 1.9.8z"/><path d="m160.6 21.2v-13.2h8v2.1h-5.5v3.3h4.5v2.1h-4.5v3.5h5.8v2.1h-8.3z"/><path d="m178.1 21.2-3-5.3h-1.3v5.3h-2.5v-13.2h4.4c1.9 0 2.8.2 3.6 1 .7.7 1.1 1.6 1.1 2.9 0 1-.2 1.8-.7 2.5-.5.6-1 .9-2.1 1.2l3.3 5.7h-2.8zm-2.6-11.1h-1.6v3.6h1.6c1.6 0 2.3-.6 2.3-1.9 0-1.2-.7-1.7-2.3-1.7z"/></g></svg>